<svg width="750" height="750" viewBox="0 0 750 750" fill="none" xmlns="http://www.w3.org/2000/svg">
<path fill-rule="evenodd" clip-rule="evenodd" d="M637.764 563.088C752.613 460.616 604.334 402.145 631.662 315.549C658.99 228.953 728.161 98.7229 470.07 121.667C211.978 144.611 -2.29136 405.282 89.7193 527.964C181.73 650.645 522.915 665.561 637.764 563.088Z" fill="#0064E5"/>
<path fill-rule="evenodd" clip-rule="evenodd" d="M424.697 353.009C432.153 356.629 439.608 360.25 447.064 363.87C458.809 369.573 470.757 375.414 480.227 384.383C489.698 393.352 496.472 406.11 495.052 419.051C493.384 434.263 481.319 445.983 469.991 456.315C455.223 469.785 440.456 483.254 425.689 496.723C419.217 502.626 412.13 511.031 415.616 519.053C424.667 539.887 432.866 563.586 424.636 584.756C422.312 590.733 417.501 596.903 411.074 596.609C406.292 596.39 402.5 592.645 399.425 588.99C387.199 574.463 378.128 557.315 373.009 539.055C366.455 515.674 367.255 488.273 383.205 469.923C395.599 455.663 416.955 446.074 418.274 427.257C394.128 406.826 359.198 399.864 329.023 409.467C298.847 419.07 274.434 444.916 266.642 475.509C262.399 492.17 271.897 509.321 283.58 521.968C295.262 534.616 309.593 545.101 318.582 559.772C336.66 589.277 328.768 627.059 320.309 660.585C317.373 672.219 299.66 674.16 290.841 665.993C282.023 657.826 280.504 644.485 281.439 632.525C282.373 620.565 285.175 608.476 282.825 596.711C276.759 566.346 241.085 552.484 223.605 526.888C210.357 507.489 208.531 482.108 213.437 459.158C218.342 436.209 229.311 415.066 240.164 394.242C219.968 363.436 211.49 325.198 216.78 288.782C219.449 270.407 195.177 256.269 197.704 237.875C199.722 223.194 217.007 216.565 231.619 213.803C259.428 208.546 287.866 206.603 316.136 208.028C322.456 208.346 325.238 199.197 322.072 193.737C318.906 188.276 312.726 185.465 307.606 181.757C297.293 174.287 290.813 162.51 287.241 150.315C282.656 134.665 282.647 116.895 291.163 102.973C293.291 99.4943 296.95 94.3377 302.517 99.3347C304.187 90.6127 321.92 82.2296 333.258 86.912C340.053 89.7184 347.295 83.9631 351.613 78.0296C355.932 72.096 360.109 64.9311 367.285 63.3211C380.136 60.4381 388.365 77.5716 386.885 90.6127C385.405 103.654 379.649 117.431 385.3 129.286C387.449 133.793 391.171 137.696 391.884 142.635C392.503 146.92 391.394 145.249 388.982 155.114C386.569 164.978 380.757 168.147 378.361 173.604C374.673 182.004 375.227 189.382 367.521 196.817C366.225 198.068 368.865 200.935 367.933 203.059C386.912 203.33 401.329 219.1 416.019 231.077C434.287 245.972 456.636 256.392 480.154 258.413C503.671 260.434 528.281 253.559 545.84 237.84C552.714 231.687 569.111 239.726 570.309 230.596C570.538 228.23 569.909 227.212 567.661 226.63C566.498 226.329 563.747 226.955 562.892 225.86C560.389 222.651 574.97 217.118 574.354 221.525C574.196 222.654 573.533 223.488 573.617 224.219C573.862 226.345 575.076 227.001 576.951 227.376C580.903 227.622 586.564 224.922 588.926 221.525C590.509 219.25 589.892 218.646 588.651 218.546C586.621 218.381 582.921 219.562 584.437 216.979C586.3 213.803 591.104 210.791 595.673 213.556C596.659 214.153 596.312 215.312 595.806 216.45C594.878 218.539 593.414 220.558 598.66 218.916C606.767 216.379 607.231 216.854 609.326 217.474C611.421 218.094 614.496 221.775 616.464 225.214C620.515 232.289 624.671 239.71 625.049 247.847C625.428 255.984 620.717 264.982 612.707 266.609C612.635 268.977 613.797 271.208 615.561 272.777C617.482 274.487 622.42 273.445 621.59 274.973C618.894 279.937 612.329 281.21 607.161 279.473C605.743 278.996 609.016 276.553 609.326 274.86C609.823 272.149 609.258 269.23 607.6 267.015C602.926 268.986 598.251 270.957 593.577 272.929C594.934 274.657 594.316 276.709 595.673 278.437C596.954 280.069 600.241 279.656 600.792 281.972C601.392 284.491 596.537 285.548 594.03 285.783C591.281 286.041 587.003 286.323 585.723 284.491C584.267 282.408 588.828 281.741 589.038 279.562C589.268 277.183 588.396 274.641 586.3 273.49C582.285 271.285 576.525 275.345 577.274 279.851C579.162 291.204 574.441 303.411 565.396 310.566C556.351 317.721 543.348 319.534 532.679 315.128C523.033 311.144 512.348 316.269 502.366 319.323C479.735 326.249 453.912 321.832 434.895 307.783C433.798 323.488 430.779 340.499 420.704 352.079C422.338 353.009 421.498 353.009 424.697 353.009Z" fill="white"/>
<path d="M324.039 182.982C327.077 182.982 329.539 180.528 329.539 177.5C329.539 174.472 327.077 172.018 324.039 172.018C321.001 172.018 318.539 174.472 318.539 177.5C318.539 180.528 321.001 182.982 324.039 182.982Z" fill="#FFB61D"/>
<path d="M363.5 172C366.538 172 369 169.538 369 166.5C369 163.462 366.538 161 363.5 161C360.462 161 358 163.462 358 166.5C358 169.538 360.462 172 363.5 172Z" fill="#FFB61D"/>
<path fill-rule="evenodd" clip-rule="evenodd" d="M395.619 411.487C393.143 410.377 390.664 409.266 388.168 408.184C369.902 400.26 347.993 394.561 330.759 404.518C328.127 387.765 346.153 374.97 362.741 371.18C367.291 370.14 371.985 369.403 376.68 368.666C389.103 366.715 401.529 364.763 411.281 357.211C425.76 345.998 429.621 326.011 430.895 307.783C449.912 321.832 475.735 326.249 498.366 319.323C500.093 318.795 501.841 318.204 503.602 317.609C512.014 314.768 520.702 311.833 528.679 315.128C539.348 319.534 552.351 317.721 561.396 310.566C570.441 303.411 575.162 291.204 573.274 279.851C572.525 275.345 578.285 271.285 582.3 273.49C584.396 274.641 585.268 277.183 585.038 279.562C584.944 280.537 583.978 281.21 583.071 281.842C581.95 282.622 580.919 283.34 581.723 284.491C583.003 286.323 587.281 286.041 590.03 285.783C592.537 285.548 597.392 284.491 596.792 281.972C596.476 280.645 595.262 280.214 594.041 279.781C593.132 279.458 592.22 279.134 591.673 278.437C590.994 277.573 590.809 276.628 590.625 275.683C590.44 274.738 590.255 273.793 589.577 272.929L603.6 267.015C605.258 269.23 605.823 272.149 605.326 274.86C605.193 275.588 604.511 276.455 603.891 277.244C603.068 278.291 602.353 279.201 603.161 279.473C608.329 281.21 614.894 279.937 617.59 274.973C618.012 274.196 616.942 274.084 615.536 273.936C614.177 273.793 612.505 273.617 611.561 272.777C609.797 271.208 608.635 268.977 608.707 266.609C616.717 264.982 621.428 255.984 621.049 247.847C620.671 239.71 616.515 232.289 612.464 225.214C610.496 221.775 607.421 218.094 605.326 217.474C605.196 217.436 605.072 217.398 604.952 217.361C603.144 216.807 602.263 216.537 594.66 218.916C589.951 220.39 590.649 218.914 591.512 217.086C591.611 216.877 591.711 216.664 591.806 216.45C592.312 215.312 592.659 214.153 591.673 213.556C587.104 210.791 582.3 213.803 580.437 216.979C579.324 218.876 581.023 218.743 582.808 218.604C583.454 218.553 584.111 218.502 584.651 218.546C585.892 218.646 586.509 219.25 584.926 221.525C582.564 224.922 576.903 227.622 572.951 227.376C571.076 227.001 569.862 226.345 569.617 224.219C569.573 223.83 569.739 223.412 569.928 222.937C570.095 222.518 570.28 222.054 570.354 221.525C570.97 217.118 556.389 222.651 558.892 225.86C559.449 226.574 560.811 226.557 562.015 226.541C562.658 226.533 563.256 226.526 563.661 226.63C565.909 227.212 566.538 228.23 566.309 230.596C565.655 235.581 560.469 235.447 554.776 235.3C550.043 235.178 544.961 235.047 541.84 237.84C524.281 253.559 499.671 260.434 476.154 258.413C452.636 256.392 430.287 245.972 412.019 231.077C409.497 229.021 406.984 226.853 404.454 224.672C392.246 214.143 379.654 203.284 363.933 203.059C364.394 202.008 363.981 200.775 363.603 199.647C363.216 198.494 362.866 197.449 363.521 196.817C367.58 192.901 369.653 185.274 371.449 178.668C373.063 172.731 374.452 167.62 376.856 166.771C381.667 165.072 383.079 160.83 384.707 155.938C384.798 155.665 384.889 155.39 384.982 155.114C385.537 153.458 386.033 152.12 386.455 150.981C387.746 147.496 388.351 145.864 387.884 142.635C387.419 139.415 385.675 136.635 383.922 133.841C382.986 132.349 382.048 130.854 381.3 129.286C377.189 120.661 379.115 111.02 381.04 101.384C381.761 97.7747 382.482 94.1663 382.885 90.6127C384.365 77.5716 376.136 60.4381 363.285 63.3211C357.023 64.726 353.045 70.3602 349.264 75.7154C348.711 76.4974 348.163 77.2735 347.613 78.0296C343.295 83.9631 336.053 89.7184 329.258 86.912C317.92 82.2296 300.187 90.6127 298.517 99.3347C292.95 94.3377 289.291 99.4943 287.163 102.973C278.647 116.895 278.656 134.665 283.241 150.315C286.813 162.51 293.293 174.287 303.606 181.757C304.917 182.707 306.298 183.598 307.68 184.489C311.694 187.079 315.717 189.675 318.072 193.737C321.238 199.197 318.456 208.346 312.136 208.028C283.866 206.603 255.428 208.546 227.619 213.803C213.007 216.565 195.722 223.194 193.704 237.875C192.443 247.052 197.853 255.17 203.26 263.283C208.691 271.431 214.118 279.575 212.78 288.782C207.49 325.198 215.968 363.436 236.164 394.242C225.311 415.066 214.342 436.209 209.437 459.158C204.531 482.108 206.357 507.489 219.605 526.888C226.509 536.997 236.25 545.276 245.885 553.463C260.645 566.007 275.154 578.338 278.825 596.711C280.55 605.347 279.499 614.159 278.448 622.966C278.068 626.156 277.687 629.345 277.439 632.525C276.504 644.485 278.023 657.826 286.841 665.993C291.876 670.656 299.812 672.024 306.24 670.173C306.185 671.157 306.128 672.072 306.075 672.933C305.782 677.624 305.59 680.701 306.416 684.348C306.63 685.298 306.98 686.38 307.893 686.726C309.711 687.414 310.924 684.64 310.801 682.756C310.336 675.622 309.444 671.596 308.585 669.323C312.326 667.659 315.26 664.74 316.309 660.585C324.768 627.059 332.66 589.277 314.582 559.772C308.61 550.025 300.28 542.125 291.935 534.212C287.72 530.214 283.501 526.213 279.58 521.968C267.897 509.321 258.399 492.17 262.642 475.509C270.434 444.916 294.847 419.07 325.023 409.467C355.198 399.864 390.128 406.826 414.274 427.257C413.376 440.074 403.181 448.61 392.855 457.256C388.02 461.304 383.157 465.376 379.205 469.923C363.255 488.273 362.455 515.674 369.009 539.055C374.128 557.315 383.199 574.463 395.425 588.99C398.5 592.645 402.292 596.39 407.074 596.609C413.501 596.903 418.312 590.733 420.636 584.756C428.866 563.586 420.667 539.887 411.616 519.053C408.13 511.031 415.217 502.626 421.689 496.723L465.991 456.315C477.319 445.983 489.384 434.263 491.052 419.051C492.472 406.11 485.698 393.352 476.227 384.383C466.757 375.414 454.809 369.573 443.064 363.87L420.697 353.009C428.07 362.451 439.198 367.752 450.155 372.971C452.272 373.979 454.383 374.984 456.458 376.015C469.279 382.386 482.439 391.683 485.375 405.654C488.981 422.817 475.878 438.571 463.731 451.26C448.348 467.327 432.832 483.51 414.558 496.22C408.34 500.544 401.445 504.568 393.868 504.839C386.29 505.11 378.046 500.377 376.856 492.915C375.782 486.179 380.44 480.005 384.819 474.763L417.208 435.995C422.131 430.103 428.615 428.57 436.329 426.746C439.043 426.104 441.909 425.427 444.913 424.51C426.738 425.434 411.264 418.499 395.619 411.487ZM264.536 307.295C265.844 319.029 269.472 330.779 276.828 340.033C284.185 349.288 295.649 355.73 307.486 355.219C311.45 355.047 312.72 349.171 310.366 345.988C308.325 343.228 304.949 341.971 301.676 340.753C301.176 340.567 300.678 340.381 300.187 340.191C296.488 338.761 292.544 336.367 291.877 332.47C302.314 340.561 317.896 341.312 329.068 334.262C332.956 345.382 345.855 352.059 357.529 350.223C369.203 348.387 378.961 339.09 382.833 327.964C382.907 327.751 382.98 327.536 383.053 327.321C383.642 325.589 384.246 323.809 385.583 322.583C386.828 321.44 388.526 320.955 390.158 320.505L422.078 311.71C422.87 311.492 423.769 311.286 424.472 311.711C425.222 312.164 425.429 313.139 425.538 314.006C427.747 331.454 417.916 349.781 402.13 357.647C393.666 361.865 383.993 363.243 374.403 364.61C361.891 366.392 349.52 368.155 340.159 376.178C335.064 380.544 331.53 386.279 327.988 392.026C326.297 394.771 324.603 397.519 322.738 400.121C311.296 416.08 290.283 426.887 271.62 420.651C260.909 417.072 252.583 408.602 245.739 399.645C225.138 372.682 214.264 338.496 215.516 304.631C215.743 298.487 216.377 292.266 218.607 286.533C232.749 302.909 249.102 317.389 267.087 329.458C266.458 326.208 264.198 323.54 261.948 321.104C255.512 314.135 248.407 307.607 241.311 301.087C224.809 285.925 208.348 270.802 200.422 250.241C198.68 245.721 197.391 240.787 198.464 236.065C200.899 225.355 213.531 220.897 224.335 218.722C250.28 213.501 276.758 210.914 303.227 211.016C304.633 227.352 318.275 241.963 334.588 244.114C350.902 246.265 368.095 235.386 372.675 219.638C372.811 219.17 372.938 218.697 373.066 218.222C373.636 216.106 374.211 213.968 375.571 212.274C377.237 210.2 380.625 209.18 382.569 210.998C396.982 224.47 412.105 237.422 429.34 247.057C446.574 256.692 466.156 262.906 485.898 262.035C452.175 274.294 417.704 284.513 382.739 292.616C380.066 293.236 376.754 293.642 375.036 291.51C368.946 283.951 359.015 279.637 349.312 280.336C339.609 281.035 330.404 286.727 325.468 295.081C323.682 298.105 319.223 297.725 315.831 296.779C308.776 294.812 301.515 291.786 297.346 285.783C296.642 284.77 296.032 283.679 295.424 282.591C294.232 280.461 293.045 278.338 291.166 276.817C288.507 274.665 285.024 274.141 281.575 273.621C280.616 273.477 279.66 273.333 278.725 273.154C268.078 271.123 258.649 263.578 254.359 253.659C264.396 246.962 277.95 250.14 289.032 254.93C290.778 255.684 292.527 256.476 294.283 257.272C303.679 261.527 313.265 265.868 323.399 264.94C332.016 264.152 339.537 259.684 347.089 255.197C353.767 251.229 360.469 247.247 367.977 245.78C387.237 242.016 406.141 256.306 415.159 273.676C415.227 273.809 415.296 273.943 415.366 274.077C416.841 276.928 418.436 280.013 421.394 281.21C418.376 264.303 405.631 249.473 389.33 243.901C373.028 238.328 353.83 242.238 341.031 253.738C333.09 260.874 321.022 261.378 310.657 258.756C304.818 257.278 299.254 254.965 293.686 252.651C289.369 250.856 285.049 249.06 280.597 247.652C270.404 244.429 258.632 243.475 249.559 249.116C246.836 243.136 243.192 237.572 238.794 232.681C243.153 257.602 265.965 278.092 291.293 279.836L277.238 285.157C273.954 286.4 270.55 287.721 268.14 290.268C264.014 294.629 263.872 301.338 264.536 307.295ZM257.602 481.611C256.237 488.47 255.487 495.902 258.566 502.185C260.226 505.572 262.876 508.354 265.482 511.09L265.66 511.277C281.334 527.739 296.058 545.099 309.732 563.245C303.66 569.056 296.901 574.154 289.64 578.4C287.617 579.582 285.432 580.731 283.087 580.689C279.592 580.626 276.752 577.994 274.294 575.519C257.123 558.232 240.394 540.508 224.131 522.37C218.96 516.603 213.703 510.564 211.353 503.194C208.366 493.826 210.48 483.69 212.613 474.093C218.493 447.628 224.679 420.44 240.012 398.049C248.626 413.461 264.579 424.585 282.062 427.37C269.94 443.301 261.507 462.001 257.602 481.611ZM366.84 186.556C364.275 191.9 359.949 196.621 354.338 198.578C346.857 201.188 338.63 198.577 331.306 195.558C327.5 193.989 323.655 192.249 320.707 189.382C318.205 186.95 316.491 183.84 314.904 180.737C309.96 171.073 305.874 160.973 302.71 150.594C300.094 142.012 298.746 131.151 305.71 125.467C313.665 131.55 324.363 133.076 334.323 131.922C343.179 130.896 351.662 127.963 360.101 125.046C361.153 124.682 362.206 124.318 363.258 123.958C364.459 123.547 365.882 123.168 366.919 123.899C367.712 124.458 367.992 125.484 368.208 126.428C371.412 140.472 372.345 155.027 370.961 169.363C370.392 175.259 369.405 181.213 366.84 186.556ZM398.8 587.754C384.541 568.813 374.988 546.38 371.227 523.001C369.612 512.963 369.09 502.443 372.448 492.843C375.654 505.416 390.84 513.446 403.087 509.043C406.284 515.604 409.19 522.306 411.794 529.122C418.637 547.031 423.294 567.411 415.716 585.023C413.895 589.257 410.296 593.765 405.723 593.089C402.759 592.65 400.598 590.142 398.8 587.754ZM303.858 98.6838C307.463 92.2502 315.395 88.9816 322.764 89.6C324.484 89.7443 326.196 89.9619 327.875 90.1752C333.193 90.8509 338.167 91.4828 341.923 89.6C347.642 86.7334 350.032 82.7484 352.464 78.6923C354.088 75.9846 355.731 73.2453 358.395 70.7857C360.081 69.2297 361.961 67.7365 364.205 67.2446C368.795 66.2387 373.202 69.7213 375.816 73.6125C381.426 81.9641 382.166 93.3311 377.686 102.335C372.753 112.251 362.581 118.456 352.405 122.894C345.079 126.089 337.326 128.68 329.331 128.845C321.335 129.01 313.015 126.487 307.502 120.715C301.989 114.942 299.96 105.641 303.858 98.6838ZM281.314 620.522C280.972 617.989 280.701 615.159 282.244 613.117C288.567 613.684 295.092 611.401 299.671 607.02C298.278 604.156 293.967 604.35 291.244 606.012C290.199 606.651 289.239 607.434 288.282 608.216C286.745 609.47 285.216 610.719 283.352 611.349C281.551 609.573 281.874 606.439 283.372 604.402C284.87 602.366 287.224 601.165 289.49 600.036L303.76 592.924C301.019 590.22 296.449 590.185 292.95 591.803C289.45 593.42 286.773 596.356 284.197 599.216C281.337 594.239 283.378 587.096 288.44 584.365L306.927 574.396C308.363 573.622 309.886 572.826 311.519 572.874C315.053 572.979 317.185 576.792 318.152 580.18C320.949 589.984 320.096 600.404 319.22 610.558C317.932 625.49 316.622 640.537 312.419 654.927C310.971 659.887 308.684 665.289 303.872 667.212C298.653 669.298 292.513 666.132 289.391 661.471C286.269 656.81 285.439 651.04 284.689 645.487L281.314 620.522ZM527.774 281.972C529.775 281.728 531.509 279.424 530.534 277.666L523.661 265.28C522.756 263.648 521.829 261.947 521.709 260.086C521.588 258.226 522.521 256.157 524.301 255.582C526.849 254.758 529.192 257.213 530.667 259.441C533.775 264.136 536.485 269.091 538.759 274.238C541.456 270.656 538.509 265.71 535.817 262.124C533.124 258.539 530.768 253.041 534.135 250.075C537.462 247.146 542.748 250.148 545.296 253.77C546.634 255.673 547.735 257.783 548.831 259.886C550.954 263.959 553.063 268.003 556.857 270.446C558.496 269.448 557.68 266.946 556.687 265.308L543.952 244.303C542.813 242.425 544.695 239.878 546.874 239.561C549.054 239.244 551.157 240.405 552.977 241.64C561.735 247.581 568.709 256.674 570.354 267.102C572 277.53 567.531 289.115 558.348 294.379C555.571 295.971 552.477 296.963 549.332 297.572C530.188 301.281 509.236 289.069 503.098 270.625C502.159 267.802 501.933 263.946 504.598 262.609C506.63 261.59 509.085 262.801 510.778 264.316C513.223 266.505 514.97 269.306 516.719 272.108C518.402 274.807 520.087 277.508 522.398 279.665C523.869 281.039 525.772 282.216 527.774 281.972ZM328.064 302.696C330.416 302.768 332.854 302.843 334.809 304.105C336.965 305.496 337.905 309.018 335.862 310.571C335.089 311.158 334.086 311.329 333.127 311.483C324.204 312.908 314.025 314.017 307.089 308.246C305.529 308.955 305.074 311.093 305.71 312.679C306.347 314.265 307.763 315.394 309.181 316.354C315.476 320.619 323.011 323.041 330.621 323.246C325.637 327.546 318.343 329.01 312.077 326.966C309.618 326.163 306.158 325.248 305.07 327.588C309.896 332.184 317.261 332.537 323.935 332.623C312.011 338.285 296.366 334.598 288.252 324.213C287.674 323.473 286.371 323.851 285.912 324.669C285.453 325.487 285.578 326.493 285.716 327.42C286.418 332.138 287.382 337.326 291.141 340.28C293.131 341.844 295.599 342.525 298.069 343.207C299.055 343.478 300.04 343.75 300.996 344.079C304.348 345.229 307.811 347.754 307.843 351.286C297.047 352.213 286.479 346.117 279.943 337.505C273.407 328.894 270.404 318.097 269.02 307.389C268.662 304.621 268.41 301.755 269.217 299.082C270.825 293.761 276.1 290.544 280.962 287.822C284.489 285.847 289.353 284.028 292.15 286.939C301.266 296.426 314.169 302.194 327.341 302.672C327.581 302.681 327.822 302.688 328.064 302.696ZM351.22 321.824L489.383 283.714C495.4 282.054 502.521 280.603 507.335 284.563C452.633 301.407 397.229 315.992 341.315 328.267C338.271 328.935 333.932 328.801 333.401 325.741C335.239 325.809 335.232 323.756 335.224 321.585C335.216 319.448 335.208 317.196 336.96 316.741L497.966 274.84C498.94 274.587 500.175 274.418 500.773 275.224C501.743 276.536 499.756 278.001 498.181 278.437L344.623 320.974C346.017 322.882 348.938 322.453 351.22 321.824ZM506.996 310.842C497.028 317.497 484.374 319.244 472.459 317.836C460.544 316.429 449.185 312.108 438.143 307.429L504.246 288.967C506.563 288.32 509.424 287.811 511.059 289.571C524.472 304.011 548.879 306.588 565.032 295.269C563.148 304.255 554.992 311.566 545.824 312.483C540.602 313.006 535.46 311.656 530.343 310.312C528.986 309.956 527.631 309.6 526.277 309.279C519.816 307.751 512.512 307.159 506.996 310.842ZM324.323 200.258C325.267 198.911 327.299 198.169 328.607 199.168C336.278 205.026 346.942 206.756 356.082 203.624C358.999 202.625 362.317 204.694 363.521 207.524C364.725 210.354 364.239 213.632 363.181 216.519C359.96 225.31 351.289 231.85 341.923 232.554C332.557 233.258 323 228.087 318.492 219.877C317.101 217.342 316.637 213.369 319.321 212.277C321.998 211.187 322.765 207.829 323.055 204.961L323.063 204.874C323.226 203.266 323.396 201.58 324.323 200.258ZM579.768 270.631C578.689 270.922 577.548 271.208 576.468 270.92C575.388 270.632 574.436 269.55 574.707 268.47C584.369 266.941 593.696 263.344 601.872 257.992C605.056 255.907 608.436 252.274 606.829 248.832C605.763 246.55 602.903 245.672 600.379 245.774C596.723 245.923 593.316 247.557 590.03 249.159L572.301 257.8C571.477 256.827 571.819 255.263 572.69 254.332C573.53 253.435 574.722 252.975 575.874 252.531L576.002 252.481C584.05 249.368 591.548 244.85 598.052 239.192C599.957 237.536 598.967 234.122 596.792 232.837C594.618 231.552 591.884 231.805 589.399 232.268C582.188 233.61 575.249 236.382 569.105 240.374C566.081 242.34 561.787 244.516 559.313 241.895C565.991 235.152 575.143 231.553 584.01 228.137L601.169 221.525C602.362 221.066 603.652 220.599 604.891 220.915C606.577 221.345 607.565 223.043 608.329 224.602C612.663 233.445 615.854 242.843 617.798 252.491C618.08 253.891 618.314 255.438 617.59 256.67C616.934 257.788 615.655 258.36 614.455 258.854C603.16 263.51 591.566 267.446 579.768 270.631ZM498.618 271.221C497.975 271.902 497.017 272.168 496.109 272.405L338.538 313.513C340.984 307.626 348.174 305.612 354.422 304.253C397.898 294.798 440.487 281.76 483.029 268.736C485.448 267.995 487.867 267.255 490.287 266.515C492.386 265.873 494.672 265.234 496.728 266.001C498.785 266.768 500.122 269.627 498.618 271.221ZM285.353 114.443C286.319 111.295 287.897 106.944 290.366 104.756C291.626 103.641 293.331 102.451 294.846 103.185C295.799 103.646 296.266 104.712 296.657 105.693C297.241 107.16 298.075 109.127 298.909 111.093C299.743 113.06 300.577 115.027 301.162 116.494C301.981 118.552 302.774 121.75 301.271 122.789C294.846 127.233 296.308 143.456 299.185 150.921C299.872 152.703 300.462 156.356 299.869 159.018C299.277 161.681 296.308 164.076 293.88 162.817C292.487 162.095 290.278 158.269 289.477 156.883C289.404 156.756 289.343 156.65 289.295 156.568C277.459 136.389 284.02 118.16 285.201 114.879C285.275 114.675 285.327 114.529 285.353 114.443ZM337.278 332.944C347.8 331.001 358.213 328.476 368.455 325.384C368.613 325.336 368.772 325.288 368.931 325.24C372.119 324.274 375.354 323.295 378.681 323.311C378.263 328.558 375.338 333.418 371.326 336.841C367.314 340.263 362.29 342.348 357.144 343.534C353.242 344.433 349.128 344.837 345.251 343.839C341.373 342.84 337.757 340.258 336.282 336.548C335.754 335.218 335.866 333.204 337.278 332.944ZM350.322 301.645C343.611 302.593 336.518 302.107 330.477 299.045C329.2 298.398 329.862 296.452 330.764 295.343C335.401 289.641 342.426 285.931 349.765 285.307C357.105 284.684 364.659 287.155 370.198 291.992C371.114 292.792 372.045 294.057 371.426 295.102C371.101 295.652 370.45 295.906 369.846 296.122C363.467 298.403 357.033 300.698 350.322 301.645ZM329.647 239.619C323.68 237.755 319.011 233.023 315.599 227.801C313.531 224.636 311.839 221.254 310.146 217.871C309.047 215.672 307.946 213.474 306.743 211.333C308.953 210.967 311.106 212.469 312.332 214.338C313.207 215.673 313.738 217.183 314.268 218.695C314.481 219.3 314.694 219.906 314.929 220.5C319.34 231.661 332.479 238.354 344.312 236.142C356.145 233.93 365.741 223.545 367.792 211.725C368.008 210.483 368.399 208.946 369.64 208.7C370.98 209.815 371.04 211.832 370.803 213.556C369.087 226.071 357.701 235.487 345.537 239.043C340.376 240.552 334.779 241.223 329.647 239.619ZM566.181 247.112C573.636 241.314 582.424 237.227 591.673 235.256C592.783 235.019 594.449 235.263 594.349 236.39C594.317 236.746 594.085 237.049 593.856 237.324C589.262 242.846 582.537 246.077 576.03 249.143C574.206 250.002 572.284 250.881 570.271 250.757C568.258 250.633 566.178 249.122 566.181 247.112ZM598.446 249.891C599.404 249.586 600.452 249.3 601.394 249.652C602.335 250.004 602.958 251.293 602.295 252.046C596.587 258.539 588.047 261.743 579.714 264.102C577.535 264.719 574.332 264.703 573.96 262.477C581.343 256.964 589.657 252.69 598.446 249.891ZM374.293 154.768C374.775 151.797 375.351 148.247 375.351 145.951C375.351 142.797 375.831 138.939 378.783 137.816C381.612 136.739 384.81 139.322 385.355 142.291C385.899 145.26 382.534 157.246 380.863 159.764C380.099 160.914 379.211 162.061 377.954 162.639C376.697 163.218 374.986 163.03 374.217 161.884C373.816 161.287 373.726 160.542 373.658 159.827C373.589 159.111 373.912 157.121 374.293 154.768ZM374.361 117.431C374.508 117.642 374.572 117.898 374.631 118.149C375.857 123.334 376.333 128.695 376.039 134.014C374.633 134.644 373.468 132.774 373.055 131.294L371.287 124.963C370.592 122.471 370.032 119.421 371.889 117.614C372.563 116.958 373.823 116.66 374.361 117.431ZM299.965 173.848C298.138 172.59 296.657 171.57 296.657 168.458C296.657 164.776 300.65 161.187 301.52 161.884C304.685 164.418 310.372 176.983 310.657 181.018C308.275 180.049 306.52 178.728 303.316 176.315C302.618 175.79 301.852 175.214 300.996 174.577C300.646 174.317 300.3 174.079 299.965 173.848ZM320.731 317.399L327.185 316.039C327.99 315.87 328.968 315.753 329.506 316.373C330.544 317.568 328.5 319.077 326.915 319.106C324.746 319.146 322.57 318.546 320.731 317.399ZM516.625 258.318C517.793 258.45 518.779 259.935 518.011 260.821L517.94 260.901C516.932 261.669 515.772 262.479 514.516 262.299C513.26 262.118 512.376 260.285 513.415 259.561C514.378 258.889 515.458 258.186 516.625 258.318ZM525.91 277.543L524.443 277.329L524.3 277.315L521.193 272.552C523.918 271.673 526.954 274.886 525.91 277.543ZM519.085 268.947C517.891 269.004 516.933 267.521 517.48 266.462C518.027 265.403 519.795 265.318 520.442 266.319C521.089 267.321 520.279 268.889 519.085 268.947ZM356.195 113.604L344.977 118.897C336.407 122.94 325.641 121.893 318.018 116.273C316.942 116.025 316.009 117.306 316.191 118.392C316.373 119.477 317.258 120.298 318.145 120.954C324.291 125.493 332.695 126.062 340.109 124.18C347.523 122.299 354.172 118.249 360.614 114.136C360.147 112.507 357.732 112.879 356.195 113.604ZM345.649 138.159C344.727 138.98 343.131 137.865 343.146 136.633C343.161 135.4 344.164 134.41 345.198 133.734C349.535 130.899 355.752 131.339 359.643 134.756C358.785 136.163 356.777 135.837 355.086 135.562C354.954 135.54 354.824 135.519 354.696 135.499C351.486 134.996 348.07 136 345.649 138.159ZM324.873 142.815C326.345 142.48 327.902 141.358 327.762 139.86C327.644 138.598 326.37 137.76 325.144 137.42C322.253 136.619 318.934 137.66 317.026 139.967C315.119 142.274 314.727 145.72 316.07 148.393C316.716 147.817 317.243 147.109 317.766 146.403C318.544 145.357 319.314 144.319 320.461 143.738C321.329 143.298 322.301 143.181 323.276 143.063C323.813 142.998 324.351 142.934 324.873 142.815ZM354.167 159.434C355.947 159.409 357.148 157.576 357.596 155.859C358.516 152.328 357.579 148.371 355.174 145.621C354.084 144.376 352.228 143.34 350.843 144.246C350.414 144.526 350.106 144.957 349.858 145.404C348.119 148.534 348.99 152.448 350.341 155.763C351.052 157.504 352.28 159.461 354.167 159.434ZM331.661 159.441L331.131 153.935C330.929 151.84 330.479 149.376 328.563 148.49C325.945 147.279 323.179 150.18 322.493 152.973C321.756 155.973 322.182 159.241 323.662 161.955C325.005 164.416 328.349 166.478 330.484 164.656C331.899 163.448 331.839 161.289 331.661 159.441ZM327.239 572.145C341.996 571.707 356.753 571.276 371.51 570.85C373.132 570.803 374.872 570.789 376.218 571.692C377.465 572.529 378.148 574.128 377.887 575.604L334.565 576.417C332.956 576.447 331.29 576.467 329.81 575.837C328.329 575.208 327.08 573.741 327.239 572.145ZM342.398 177.261C340.816 176.811 341.561 174.472 342.305 173.01C344.708 168.286 343.354 162.493 340.948 157.771L340.889 157.655C340.354 156.609 339.784 155.491 339.974 154.339C340.171 153.145 341.682 152.151 342.626 152.913C342.91 153.142 343.083 153.477 343.247 153.803C345.053 157.389 346.825 161.075 347.414 165.044C348.002 169.013 347.244 173.37 344.512 176.318C343.96 176.915 343.181 177.484 342.398 177.261ZM344.757 192.305C352.165 191.122 358.106 183.935 357.852 176.464C357.837 176.02 357.797 175.557 357.567 175.176C356.924 174.106 355.175 174.356 354.349 175.293C353.67 176.063 353.412 177.085 353.158 178.093H353.157C353.103 178.31 353.048 178.526 352.989 178.739C351.999 182.335 349.535 185.504 346.289 187.359C346.13 187.449 345.969 187.538 345.807 187.627C344.858 188.149 343.883 188.686 343.385 189.625C342.803 190.724 343.525 192.501 344.757 192.305ZM389.985 642.212C390.301 651.085 391.291 679.239 390.135 684.348C389.92 685.298 389.57 686.38 388.657 686.726C386.839 687.414 385.772 684.694 385.749 682.756C385.566 667.049 385.383 648.592 385.2 630.135V630.134C385.017 611.677 384.834 593.22 384.651 577.513C387.666 577.513 388.657 588.111 388.657 594.956C388.657 617.955 389.985 642.212 389.985 642.212ZM286.242 447.136C285.801 446.88 285.287 446.623 284.761 446.359C282.661 445.309 280.35 444.153 281.566 442.525C313.714 443.912 345.936 443.591 378.05 441.562C387.145 440.987 397.405 439.661 402.811 432.351C403.027 432.058 403.236 431.756 403.445 431.453C404.164 430.411 404.887 429.364 405.944 428.688C407.309 427.816 409.492 427.927 410.175 429.392C409.212 437.228 401.84 443.761 393.916 443.8C390.449 443.817 389.274 448.326 388.835 451.753C388.395 455.179 386.023 459.569 382.769 458.377C383.591 455.567 384.122 452.674 384.353 449.756C384.431 448.778 384.411 447.643 383.651 447.018C383.061 446.533 382.223 446.531 381.459 446.553L296.608 448.965C296.07 448.98 295.478 449.017 295.093 449.393C294.624 449.851 294.668 450.602 294.744 451.252L300.766 502.411C300.899 503.536 301.357 504.974 302.495 504.98L350.596 505.244C353.153 505.258 356.792 507.205 355.23 509.222C354.59 510.048 353.39 510.124 352.344 510.128L303.392 510.326C301.324 510.334 300.74 513.134 300.816 515.192L301.595 536.243C295.715 532.068 295.312 523.687 295.271 516.493C295.151 495.529 293.27 474.574 289.655 453.921C289.204 451.343 288.512 448.453 286.242 447.136Z" fill="#00160A"/>
<path fill-rule="evenodd" clip-rule="evenodd" d="M395.159 546.515C397.174 541.963 401.866 538.711 406.849 538.413C408.145 538.335 409.615 538.526 410.406 539.551C411.197 540.576 410.518 542.523 409.231 542.355C406.142 541.951 403.059 543.521 400.892 545.751C398.724 547.98 397.31 550.812 395.93 553.595C393.948 551.977 394.125 548.851 395.159 546.515Z" fill="#00160A"/>
<path fill-rule="evenodd" clip-rule="evenodd" d="M615.264 110.974C617.797 111.213 620.143 109.75 622.243 108.318C628.08 104.335 634.367 98.906 633.983 91.8649C633.862 89.6288 633.053 87.525 632.244 85.4187C631.898 84.5173 631.551 83.6155 631.258 82.7027C629.729 77.9356 629.672 72.9092 629.615 67.8699C629.569 63.7366 629.522 59.5945 628.662 55.5796C628.354 54.1398 627.737 52.5042 626.319 52.0947C625.519 51.864 624.668 52.0984 623.87 52.332L598.371 59.7918C593.571 61.1961 592.543 67.4095 592.405 72.3949L592.031 85.9598C590.515 86.1492 589.077 85.557 587.638 84.9647C587.089 84.7386 586.54 84.5126 585.987 84.33C580.538 82.5321 573.95 85.5551 571.775 90.8505C569.601 96.1459 572.172 102.908 577.321 105.435C582.47 107.962 589.413 105.87 592.296 100.923C594.254 97.5638 594.37 93.4849 594.435 89.6L594.555 82.3055C594.6 79.5793 597.668 78.0675 600.261 77.2008C608.247 74.5313 616.307 72.0812 624.429 69.8541C625.231 69.634 626.229 69.4689 626.777 70.0932C627.074 70.4306 627.138 70.9058 627.19 71.3512L628.301 80.9015C628.466 82.3179 628.306 84.2225 626.908 84.5228C620.157 85.9729 614.155 90.5699 611.01 96.7003C609.67 99.3119 608.824 102.311 609.418 105.185C610.011 108.058 612.335 110.699 615.264 110.974ZM625.578 56.3434C625.863 56.6318 625.945 57.0567 626.014 57.4552L626.788 61.9383C626.992 63.1225 627.186 64.3945 626.67 65.4814C625.856 67.1984 623.694 67.715 621.818 68.0839C617.484 68.9361 613.206 70.067 609.02 71.4672C605.521 72.6375 602.089 73.9945 598.659 75.3509C598.369 75.4655 598.079 75.5801 597.789 75.6946C596.975 76.0161 595.853 76.2479 595.387 75.5118C595.27 75.3275 595.221 75.1096 595.181 74.8955C594.362 70.5483 596.376 65.8064 600.084 63.3516C602.126 61.9996 604.54 61.3363 606.907 60.6936L623.551 56.1754C624.239 55.9887 625.078 55.8385 625.578 56.3434ZM591.998 92.0932C591.928 96.295 590.912 101.099 587.175 103.133C584.209 104.746 580.337 103.971 577.647 101.944C574.486 99.5646 572.751 94.8258 575.061 91.6372C576.023 90.3091 577.526 89.4482 579.081 88.885C582.655 87.5913 586.738 87.7213 590.219 89.2397C590.774 89.4821 591.342 89.7815 591.663 90.289C591.996 90.8154 592.008 91.473 591.998 92.0932ZM146.501 101.482C146.933 102.808 148.814 102.757 150.176 102.438L162.561 99.5421C162.216 96.3267 161.589 93.1413 160.691 90.0338C160.426 89.118 160.107 88.1601 159.386 87.5333C158.271 86.5626 156.601 86.6969 155.132 86.8874L136.11 89.3548C134.803 89.5242 133.06 90.3704 133.558 91.5856C137.912 102.232 141.347 113.253 143.812 124.485C144.283 126.633 144.204 129.65 142.048 130.122C135.804 131.486 130.461 136.37 128.559 142.45C127.974 144.321 127.708 146.399 128.465 148.207C128.875 149.187 129.564 150.03 130.335 150.762C134.039 154.278 139.945 155.255 144.59 153.122C149.235 150.988 152.325 145.878 152.047 140.789C151.942 138.867 151.405 136.997 150.872 135.147L138.712 92.9693L154.812 91.7104C156.43 91.8008 157.113 94.0904 156.258 95.4614C155.404 96.8325 153.707 97.4028 152.119 97.7211C151.89 97.7669 151.659 97.8103 151.428 97.8537C150.052 98.112 148.652 98.3747 147.536 99.1947C146.814 99.7255 146.224 100.631 146.501 101.482Z" fill="#FFB61D"/>
<path fill-rule="evenodd" clip-rule="evenodd" d="M392.507 532.874C392.023 533.5 390.932 533.321 390.466 532.682C390.001 532.042 390.042 531.157 390.296 530.409C390.75 529.069 391.779 528.004 392.856 527.083C395.564 524.77 398.788 523.059 402.225 522.111C403.581 521.737 405.162 521.521 406.283 522.365C407.405 523.21 407.224 525.465 405.824 525.59C400.634 526.053 395.685 528.76 392.507 532.874Z" fill="#00160A"/>
</svg>
